<svg width="175" height="125" viewBox="0 0 52 28" fill="none" xmlns="http://www.w3.org/2000/svg">
<path d="M38.4375 5.625C37.9402 5.625 37.4633 5.82254 37.1117 6.17417C36.76 6.5258 36.5625 7.00272 36.5625 7.5C36.5625 7.99728 36.76 8.47419 37.1117 8.82582C37.4633 9.17745 37.9402 9.375 38.4375 9.375C38.9348 9.375 39.4117 9.17745 39.7633 8.82582C40.115 8.47419 40.3125 7.99728 40.3125 7.5C40.3125 7.00272 40.115 6.5258 39.7633 6.17417C39.4117 5.82254 38.9348 5.625 38.4375 5.625ZM46.5625 1.5625C46.3163 1.5625 46.0725 1.611 45.845 1.70523C45.6175 1.79945 45.4108 1.93756 45.2367 2.11167C45.0626 2.28578 44.9245 2.49248 44.8302 2.71997C44.736 2.94745 44.6875 3.19127 44.6875 3.4375C44.6875 3.68373 44.736 3.92755 44.8302 4.15503C44.9245 4.38252 45.0626 4.58921 45.2367 4.76332C45.4108 4.93743 45.6175 5.07555 45.845 5.16977C46.0725 5.264 46.3163 5.3125 46.5625 5.3125C46.8087 5.3125 47.0525 5.264 47.28 5.16977C47.5075 5.07555 47.7142 4.93743 47.8883 4.76332C48.0624 4.58921 48.2005 4.38252 48.2948 4.15503C48.389 3.92755 48.4375 3.68373 48.4375 3.4375C48.4375 3.19127 48.389 2.94745 48.2948 2.71997C48.2005 2.49248 48.0624 2.28578 47.8883 2.11167C47.7142 1.93756 47.5075 1.79945 47.28 1.70523C47.0525 1.611 46.8087 1.5625 46.5625 1.5625ZM46.5625 9.6875C46.0652 9.6875 45.5883 9.88504 45.2367 10.2367C44.885 10.5883 44.6875 11.0652 44.6875 11.5625C44.6875 12.0598 44.885 12.5367 45.2367 12.8883C45.5883 13.24 46.0652 13.4375 46.5625 13.4375C47.0598 13.4375 47.5367 13.24 47.8883 12.8883C48.24 12.5367 48.4375 12.0598 48.4375 11.5625C48.4375 11.0652 48.24 10.5883 47.8883 10.2367C47.5367 9.88504 47.0598 9.6875 46.5625 9.6875Z" fill="#E2E072"/>
<path d="M47.0394 3.84125L46.0856 3.03375L42.8353 6.875H38.4375V8.125H42.835L46.0856 11.9663L47.0394 11.1588L43.9437 7.5L47.0394 3.84125Z" fill="#E2E072"/>
<path d="M19.6625 27.04C18.9345 27.04 18.5705 26.8053 18.5705 26.336V25.104C18.5705 24.608 18.9345 24.36 19.6625 24.36C19.9105 24.36 20.1478 24.3853 20.3745 24.436V24.724C20.1185 24.66 19.8838 24.628 19.6705 24.628C19.5665 24.628 19.4758 24.6347 19.3985 24.648C19.3211 24.6587 19.2465 24.6787 19.1745 24.708C19.0198 24.7747 18.9425 24.9053 18.9425 25.1V26.316C18.9425 26.6147 19.1905 26.764 19.6865 26.764C19.8998 26.764 20.1345 26.732 20.3905 26.668V26.964C20.1638 27.0147 19.9211 27.04 19.6625 27.04ZM21.7043 27.04C21.5336 27.04 21.4056 27.0333 21.3203 27.02C21.2349 27.0093 21.1496 26.984 21.0643 26.944C20.9763 26.904 20.9123 26.84 20.8723 26.752C20.8323 26.6613 20.8123 26.54 20.8123 26.388V25.716C20.8123 25.596 20.8269 25.4907 20.8563 25.4C20.8856 25.3093 20.9243 25.2387 20.9723 25.188C21.0123 25.1427 21.0723 25.108 21.1523 25.084C21.2349 25.0573 21.3189 25.04 21.4043 25.032C21.5003 25.0267 21.6003 25.024 21.7043 25.024C21.8429 25.024 21.9469 25.028 22.0163 25.036C22.0883 25.0413 22.1643 25.0547 22.2443 25.076C22.3269 25.1 22.3909 25.136 22.4363 25.184C22.4816 25.232 22.5203 25.3013 22.5523 25.392C22.5816 25.4853 22.5963 25.5933 22.5963 25.716V26.388C22.5963 26.6147 22.5443 26.78 22.4403 26.884C22.3976 26.9267 22.3363 26.96 22.2563 26.984C22.1763 27.008 22.0936 27.024 22.0083 27.032C21.9069 27.0373 21.8056 27.04 21.7043 27.04ZM21.7043 26.804C21.8163 26.804 21.8976 26.8013 21.9483 26.796C21.9989 26.7907 22.0483 26.776 22.0963 26.752C22.1443 26.7307 22.1776 26.696 22.1963 26.648C22.2176 26.5973 22.2283 26.528 22.2283 26.44V25.656C22.2283 25.536 22.2136 25.4493 22.1843 25.396C22.1549 25.34 22.1043 25.304 22.0323 25.288C21.9629 25.2693 21.8536 25.26 21.7043 25.26C21.5549 25.26 21.4443 25.2693 21.3723 25.288C21.3029 25.304 21.2536 25.34 21.2243 25.396C21.1949 25.4493 21.1803 25.536 21.1803 25.656V26.44C21.1803 26.528 21.1896 26.5973 21.2083 26.648C21.2296 26.696 21.2643 26.7307 21.3123 26.752C21.3603 26.776 21.4096 26.7907 21.4603 26.796C21.5109 26.8013 21.5923 26.804 21.7043 26.804ZM23.1577 25.064H23.5177V25.3C23.555 25.116 23.767 25.024 24.1537 25.024C24.4017 25.024 24.575 25.0693 24.6737 25.16C24.775 25.248 24.8257 25.388 24.8257 25.58V27H24.4657V25.6C24.4657 25.5493 24.4617 25.508 24.4537 25.476C24.4457 25.444 24.4297 25.412 24.4057 25.38C24.3524 25.3133 24.2337 25.28 24.0497 25.28C23.9084 25.28 23.799 25.2907 23.7217 25.312C23.647 25.3307 23.5937 25.3627 23.5617 25.408C23.5324 25.4533 23.5177 25.5173 23.5177 25.6V27H23.1577V25.064ZM25.4507 25.064H25.8107V25.3C25.848 25.116 26.06 25.024 26.4467 25.024C26.6947 25.024 26.868 25.0693 26.9667 25.16C27.068 25.248 27.1187 25.388 27.1187 25.58V27H26.7587V25.6C26.7587 25.5493 26.7547 25.508 26.7467 25.476C26.7387 25.444 26.7227 25.412 26.6987 25.38C26.6453 25.3133 26.5267 25.28 26.3427 25.28C26.2013 25.28 26.092 25.2907 26.0147 25.312C25.94 25.3307 25.8867 25.3627 25.8547 25.408C25.8253 25.4533 25.8107 25.5173 25.8107 25.6V27H25.4507V25.064ZM28.5596 27.04C27.9676 27.04 27.6716 26.8427 27.6716 26.448V25.684C27.6716 25.4493 27.7383 25.2813 27.8716 25.18C28.0076 25.076 28.2263 25.024 28.5276 25.024C28.813 25.024 29.0183 25.0733 29.1436 25.172C29.2716 25.2707 29.3356 25.4413 29.3356 25.684V26.112H28.0356V26.404C28.0356 26.5373 28.0823 26.6333 28.1756 26.692C28.269 26.7507 28.413 26.78 28.6076 26.78C28.7916 26.78 29.009 26.748 29.2596 26.684V26.96C29.0143 27.0133 28.781 27.04 28.5596 27.04ZM28.9756 25.876V25.572C28.9756 25.4547 28.9396 25.3747 28.8676 25.332C28.7983 25.2867 28.6783 25.264 28.5076 25.264C28.3423 25.264 28.2223 25.2867 28.1476 25.332C28.073 25.3747 28.0356 25.4547 28.0356 25.572V25.876H28.9756ZM30.6643 27.04C30.5309 27.04 30.4336 27.0373 30.3723 27.032C30.3136 27.0267 30.2456 27.0133 30.1683 26.992C30.0856 26.9707 30.0216 26.9387 29.9763 26.896C29.9309 26.8533 29.8923 26.7907 29.8603 26.708C29.8283 26.628 29.8123 26.528 29.8123 26.408V25.696C29.8123 25.48 29.8536 25.3253 29.9363 25.232C29.9816 25.1787 30.0269 25.1387 30.0723 25.112C30.1203 25.0827 30.1816 25.0627 30.2563 25.052C30.3309 25.0413 30.3976 25.0347 30.4563 25.032C30.5149 25.0267 30.5976 25.024 30.7043 25.024C30.8883 25.024 31.0723 25.044 31.2563 25.084V25.348C31.0429 25.2947 30.8443 25.268 30.6603 25.268C30.5216 25.268 30.4189 25.2787 30.3523 25.3C30.2883 25.3187 30.2429 25.3547 30.2163 25.408C30.1923 25.4587 30.1803 25.5373 30.1803 25.644V26.436C30.1803 26.5347 30.1936 26.608 30.2203 26.656C30.2496 26.704 30.3003 26.7387 30.3723 26.76C30.4469 26.7787 30.5563 26.788 30.7003 26.788C30.8949 26.788 31.0896 26.7627 31.2843 26.712V26.984C31.1029 27.0213 30.8963 27.04 30.6643 27.04ZM32.5517 27.04C32.3864 27.04 32.2571 27.0227 32.1637 26.988C32.0704 26.9507 32.0024 26.8893 31.9597 26.804C31.9197 26.716 31.8997 26.5933 31.8997 26.436V25.3H31.4677V25.064H31.8997V24.464H32.2637V25.064H32.9557V25.3H32.2637V26.456C32.2637 26.552 32.2744 26.624 32.2957 26.672C32.3197 26.72 32.3597 26.7547 32.4157 26.776C32.4744 26.7947 32.5584 26.804 32.6677 26.804C32.7024 26.804 32.7984 26.7933 32.9557 26.772V27.008C32.8197 27.0293 32.6851 27.04 32.5517 27.04ZM33.3491 24.364H33.7091V24.74H33.3491V24.364ZM33.3491 25.064H33.7091V27H33.3491V25.064ZM34.3335 25.064H34.6935V25.3C34.7308 25.116 34.9428 25.024 35.3295 25.024C35.5775 25.024 35.7508 25.0693 35.8495 25.16C35.9508 25.248 36.0015 25.388 36.0015 25.58V27H35.6415V25.6C35.6415 25.5493 35.6375 25.508 35.6295 25.476C35.6215 25.444 35.6055 25.412 35.5815 25.38C35.5282 25.3133 35.4095 25.28 35.2255 25.28C35.0842 25.28 34.9748 25.2907 34.8975 25.312C34.8228 25.3307 34.7695 25.3627 34.7375 25.408C34.7082 25.4533 34.6935 25.5173 34.6935 25.6V27H34.3335V25.064ZM37.3585 27.88C37.0945 27.88 36.8718 27.8653 36.6905 27.836V27.58C37.0105 27.6173 37.2438 27.636 37.3905 27.636C37.5745 27.636 37.7078 27.6067 37.7905 27.548C37.8758 27.4893 37.9185 27.392 37.9185 27.256V26.792C37.9131 26.8773 37.8545 26.94 37.7425 26.98C37.6331 27.02 37.4945 27.04 37.3265 27.04C37.1265 27.04 36.9705 27.0213 36.8585 26.984C36.7491 26.9467 36.6705 26.8853 36.6225 26.8C36.5771 26.7147 36.5545 26.5987 36.5545 26.452V25.664C36.5545 25.4347 36.6158 25.2707 36.7385 25.172C36.8638 25.0733 37.0678 25.024 37.3505 25.024C37.6865 25.024 37.8838 25.1 37.9425 25.252V25.064H38.2785V27.184C38.2785 27.3627 38.2451 27.5027 38.1785 27.604C38.1118 27.7053 38.0118 27.776 37.8785 27.816C37.7451 27.8587 37.5718 27.88 37.3585 27.88ZM37.4025 26.8C37.5918 26.8 37.7251 26.7773 37.8025 26.732C37.8798 26.6867 37.9185 26.6013 37.9185 26.476V25.6C37.9185 25.512 37.9038 25.4453 37.8745 25.4C37.8478 25.3547 37.7971 25.3227 37.7225 25.304C37.6478 25.2827 37.5385 25.272 37.3945 25.272C37.2585 25.272 37.1558 25.2813 37.0865 25.3C37.0198 25.3187 36.9731 25.352 36.9465 25.4C36.9225 25.4453 36.9105 25.512 36.9105 25.6V26.476C36.9105 26.5667 36.9238 26.6347 36.9505 26.68C36.9771 26.7253 37.0251 26.7573 37.0945 26.776C37.1638 26.792 37.2665 26.8 37.4025 26.8ZM39.8257 25.064H40.1817V25.272H40.1857C40.215 25.1067 40.435 25.024 40.8457 25.024C41.091 25.024 41.2763 25.076 41.4017 25.18C41.527 25.2813 41.5897 25.412 41.5897 25.572V26.368C41.5897 26.4827 41.5723 26.5827 41.5377 26.668C41.5057 26.7533 41.463 26.82 41.4097 26.868C41.3617 26.9133 41.295 26.9493 41.2097 26.976C41.127 27.0027 41.0443 27.02 40.9617 27.028C40.887 27.036 40.7963 27.04 40.6897 27.04C40.5723 27.04 40.4643 27.0267 40.3657 27C40.2697 26.9707 40.2097 26.9293 40.1857 26.876V27.832H39.8257V25.064ZM40.6977 26.796C40.8363 26.796 40.9417 26.7867 41.0137 26.768C41.0883 26.7467 41.1417 26.7093 41.1737 26.656C41.2057 26.6027 41.2217 26.5213 41.2217 26.412V25.7C41.2217 25.58 41.2057 25.4907 41.1737 25.432C41.1417 25.3733 41.0883 25.3347 41.0137 25.316C40.9417 25.2947 40.835 25.284 40.6937 25.284C40.5523 25.284 40.447 25.2947 40.3777 25.316C40.3083 25.3347 40.259 25.3733 40.2297 25.432C40.2003 25.488 40.1857 25.5773 40.1857 25.7V26.412C40.1857 26.5213 40.2003 26.6027 40.2297 26.656C40.2617 26.7093 40.3137 26.7467 40.3857 26.768C40.4577 26.7867 40.5617 26.796 40.6977 26.796ZM42.9581 27.04C42.3661 27.04 42.0701 26.8427 42.0701 26.448V25.684C42.0701 25.4493 42.1367 25.2813 42.2701 25.18C42.4061 25.076 42.6247 25.024 42.9261 25.024C43.2114 25.024 43.4167 25.0733 43.5421 25.172C43.6701 25.2707 43.7341 25.4413 43.7341 25.684V26.112H42.4341V26.404C42.4341 26.5373 42.4807 26.6333 42.5741 26.692C42.6674 26.7507 42.8114 26.78 43.0061 26.78C43.1901 26.78 43.4074 26.748 43.6581 26.684V26.96C43.4127 27.0133 43.1794 27.04 42.9581 27.04ZM43.3741 25.876V25.572C43.3741 25.4547 43.3381 25.3747 43.2661 25.332C43.1967 25.2867 43.0767 25.264 42.9061 25.264C42.7407 25.264 42.6207 25.2867 42.5461 25.332C42.4714 25.3747 42.4341 25.4547 42.4341 25.572V25.876H43.3741ZM45.1027 27.04C44.932 27.04 44.804 27.0333 44.7187 27.02C44.6334 27.0093 44.548 26.984 44.4627 26.944C44.3747 26.904 44.3107 26.84 44.2707 26.752C44.2307 26.6613 44.2107 26.54 44.2107 26.388V25.716C44.2107 25.596 44.2254 25.4907 44.2547 25.4C44.284 25.3093 44.3227 25.2387 44.3707 25.188C44.4107 25.1427 44.4707 25.108 44.5507 25.084C44.6334 25.0573 44.7174 25.04 44.8027 25.032C44.8987 25.0267 44.9987 25.024 45.1027 25.024C45.2414 25.024 45.3454 25.028 45.4147 25.036C45.4867 25.0413 45.5627 25.0547 45.6427 25.076C45.7254 25.1 45.7894 25.136 45.8347 25.184C45.88 25.232 45.9187 25.3013 45.9507 25.392C45.98 25.4853 45.9947 25.5933 45.9947 25.716V26.388C45.9947 26.6147 45.9427 26.78 45.8387 26.884C45.796 26.9267 45.7347 26.96 45.6547 26.984C45.5747 27.008 45.492 27.024 45.4067 27.032C45.3054 27.0373 45.204 27.04 45.1027 27.04ZM45.1027 26.804C45.2147 26.804 45.296 26.8013 45.3467 26.796C45.3974 26.7907 45.4467 26.776 45.4947 26.752C45.5427 26.7307 45.576 26.696 45.5947 26.648C45.616 26.5973 45.6267 26.528 45.6267 26.44V25.656C45.6267 25.536 45.612 25.4493 45.5827 25.396C45.5534 25.34 45.5027 25.304 45.4307 25.288C45.3614 25.2693 45.252 25.26 45.1027 25.26C44.9534 25.26 44.8427 25.2693 44.7707 25.288C44.7014 25.304 44.652 25.34 44.6227 25.396C44.5934 25.4493 44.5787 25.536 44.5787 25.656V26.44C44.5787 26.528 44.588 26.5973 44.6067 26.648C44.628 26.696 44.6627 26.7307 44.7107 26.752C44.7587 26.776 44.808 26.7907 44.8587 26.796C44.9094 26.8013 44.9907 26.804 45.1027 26.804ZM46.5561 25.064H46.9121V25.272H46.9161C46.9455 25.1067 47.1655 25.024 47.5761 25.024C47.8215 25.024 48.0068 25.076 48.1321 25.18C48.2575 25.2813 48.3201 25.412 48.3201 25.572V26.368C48.3201 26.4827 48.3028 26.5827 48.2681 26.668C48.2361 26.7533 48.1935 26.82 48.1401 26.868C48.0921 26.9133 48.0255 26.9493 47.9401 26.976C47.8575 27.0027 47.7748 27.02 47.6921 27.028C47.6175 27.036 47.5268 27.04 47.4201 27.04C47.3028 27.04 47.1948 27.0267 47.0961 27C47.0001 26.9707 46.9401 26.9293 46.9161 26.876V27.832H46.5561V25.064ZM47.4281 26.796C47.5668 26.796 47.6721 26.7867 47.7441 26.768C47.8188 26.7467 47.8721 26.7093 47.9041 26.656C47.9361 26.6027 47.9521 26.5213 47.9521 26.412V25.7C47.9521 25.58 47.9361 25.4907 47.9041 25.432C47.8721 25.3733 47.8188 25.3347 47.7441 25.316C47.6721 25.2947 47.5655 25.284 47.4241 25.284C47.2828 25.284 47.1775 25.2947 47.1081 25.316C47.0388 25.3347 46.9895 25.3733 46.9601 25.432C46.9308 25.488 46.9161 25.5773 46.9161 25.7V26.412C46.9161 26.5213 46.9308 26.6027 46.9601 26.656C46.9921 26.7093 47.0441 26.7467 47.1161 26.768C47.1881 26.7867 47.2921 26.796 47.4281 26.796ZM48.8725 24.2H49.2325V27H48.8725V24.2ZM50.6729 27.04C50.0809 27.04 49.7849 26.8427 49.7849 26.448V25.684C49.7849 25.4493 49.8516 25.2813 49.9849 25.18C50.1209 25.076 50.3396 25.024 50.6409 25.024C50.9263 25.024 51.1316 25.0733 51.2569 25.172C51.3849 25.2707 51.4489 25.4413 51.4489 25.684V26.112H50.1489V26.404C50.1489 26.5373 50.1956 26.6333 50.2889 26.692C50.3823 26.7507 50.5263 26.78 50.7209 26.78C50.9049 26.78 51.1223 26.748 51.3729 26.684V26.96C51.1276 27.0133 50.8943 27.04 50.6729 27.04ZM51.0889 25.876V25.572C51.0889 25.4547 51.0529 25.3747 50.9809 25.332C50.9116 25.2867 50.7916 25.264 50.6209 25.264C50.4556 25.264 50.3356 25.2867 50.2609 25.332C50.1863 25.3747 50.1489 25.4547 50.1489 25.572V25.876H51.0889Z" fill="#05314F"/>
<path d="M15.011 23.12C14.243 23.12 13.483 22.912 12.731 22.496C11.979 22.064 11.379 21.232 10.931 20L10.331 18.44H3.61101L1.69101 23H0.611008L7.33101 7.16H8.05101L13.331 20C13.731 20.928 14.107 21.568 14.459 21.92C14.811 22.256 15.315 22.456 15.971 22.52V23C15.683 23.08 15.363 23.12 15.011 23.12ZM3.97101 17.48H9.85101L6.97101 10.52L3.97101 17.48ZM20.3754 23.18C19.6314 23.18 19.0494 23.102 18.6294 22.946C18.2094 22.778 17.9034 22.502 17.7114 22.118C17.5314 21.722 17.4414 21.17 17.4414 20.462V15.35H15.4974V14.288H17.4414V11.588H19.0794V14.288H22.1934V15.35H19.0794V20.552C19.0794 20.984 19.1274 21.308 19.2234 21.524C19.3314 21.74 19.5114 21.896 19.7634 21.992C20.0274 22.076 20.4054 22.118 20.8974 22.118C21.0534 22.118 21.4854 22.07 22.1934 21.974V23.036C21.5814 23.132 20.9754 23.18 20.3754 23.18ZM27.6176 23.18C26.8736 23.18 26.2916 23.102 25.8716 22.946C25.4516 22.778 25.1456 22.502 24.9536 22.118C24.7736 21.722 24.6836 21.17 24.6836 20.462V15.35H22.7396V14.288H24.6836V11.588H26.3216V14.288H29.4356V15.35H26.3216V20.552C26.3216 20.984 26.3696 21.308 26.4656 21.524C26.5736 21.74 26.7536 21.896 27.0056 21.992C27.2696 22.076 27.6476 22.118 28.1396 22.118C28.2956 22.118 28.7276 22.07 29.4356 21.974V23.036C28.8236 23.132 28.2176 23.18 27.6176 23.18ZM31.2058 11.138H32.8258V12.83H31.2058V11.138ZM31.2058 14.288H32.8258V23H31.2058V14.288ZM38.3174 23.18C37.4894 23.18 36.8474 23.102 36.3914 22.946C35.9474 22.79 35.6234 22.514 35.4194 22.118C35.2274 21.722 35.1314 21.152 35.1314 20.408C35.1314 19.748 35.2214 19.238 35.4014 18.878C35.5934 18.506 35.9114 18.242 36.3554 18.086C36.8114 17.93 37.4534 17.852 38.2814 17.852H40.8914V16.466C40.8914 16.142 40.8254 15.896 40.6934 15.728C40.5734 15.548 40.3634 15.422 40.0634 15.35C39.7754 15.278 39.3494 15.242 38.7854 15.242C37.8854 15.242 36.8894 15.314 35.7974 15.458V14.27C36.9854 14.162 38.0594 14.108 39.0194 14.108C40.0274 14.108 40.7714 14.186 41.2514 14.342C41.7314 14.486 42.0614 14.744 42.2414 15.116C42.4214 15.488 42.5114 16.064 42.5114 16.844V23H40.9454V22.172C40.8134 22.844 39.9374 23.18 38.3174 23.18ZM38.5874 22.118C39.1754 22.118 39.6734 22.076 40.0814 21.992C40.6214 21.884 40.8914 21.632 40.8914 21.236V18.86H38.3894C37.8734 18.86 37.5014 18.902 37.2734 18.986C37.0454 19.058 36.8954 19.202 36.8234 19.418C36.7514 19.634 36.7154 19.982 36.7154 20.462C36.7154 20.894 36.7574 21.23 36.8414 21.47C36.9254 21.698 37.0754 21.866 37.2914 21.974C37.5074 22.07 37.8314 22.118 38.2634 22.118H38.5874Z" fill="#05314F"/>
</svg>
